<?xml version="1.0" standalone="no"?>
<!DOCTYPE svg PUBLIC "-//W3C//DTD SVG 20010904//EN"
 "http://www.w3.org/TR/2001/REC-SVG-20010904/DTD/svg10.dtd">
<svg version="1.0" xmlns="http://www.w3.org/2000/svg"
 width="320.000000pt" height="66.000000pt" viewBox="0 0 320.000000 66.000000"
 preserveAspectRatio="xMidYMid meet">

<g transform="translate(0.000000,66.000000) scale(0.100000,-0.100000)"
fill="#000000" stroke="none">
<path d="M320 633 c0 -17 3 -51 6 -76 l7 -46 128 -3 128 -3 -135 -169 -134
-169 0 -84 0 -85 53 7 c75 10 148 48 201 105 25 27 46 54 46 59 0 6 -44 11
-109 13 l-109 3 114 143 c114 142 114 142 100 171 -39 75 -144 140 -253 157
-42 6 -43 6 -43 -23z"/>
<path d="M72 537 c-73 -77 -91 -243 -39 -349 48 -97 127 -155 250 -182 l27 -6
0 90 0 90 -116 0 -116 0 6 38 c7 51 19 342 14 342 -3 0 -14 -10 -26 -23z"/>
<path d="M1210 505 c0 -18 5 -25 20 -25 15 0 20 7 20 25 0 18 -5 25 -20 25
-15 0 -20 -7 -20 -25z"/>
<path d="M1807 504 c-4 -4 -7 -20 -7 -35 0 -15 -7 -29 -15 -33 -8 -3 -15 -15
-15 -26 0 -11 7 -20 15 -20 12 0 15 -14 15 -63 0 -75 18 -107 60 -107 45 0 80
17 80 39 0 23 -16 36 -25 21 -3 -5 -22 -10 -41 -10 l-34 0 0 60 0 60 41 0 c36
0 40 2 37 23 -2 17 -10 23 -40 25 -33 3 -37 6 -40 34 -3 31 -17 45 -31 32z"/>
<path d="M871 414 c-12 -15 -21 -32 -21 -39 0 -24 36 -57 70 -64 50 -10 54
-41 5 -41 -22 0 -38 6 -41 15 -12 29 -34 16 -34 -19 0 -30 4 -34 31 -40 76
-15 119 8 119 62 0 34 -23 57 -68 69 -17 4 -32 13 -32 18 -1 17 46 17 60 1 20
-26 30 -18 30 22 l0 39 -49 2 c-42 1 -52 -2 -70 -25z"/>
<path d="M1181 426 c-16 -19 -6 -36 20 -36 17 0 19 -7 19 -60 l0 -60 -30 0
c-23 0 -30 -5 -30 -19 0 -10 7 -22 16 -25 24 -9 117 -7 133 3 21 13 5 41 -23
41 -25 0 -25 2 -28 83 l-3 82 -31 3 c-18 2 -36 -3 -43 -12z"/>
<path d="M1500 420 c-38 -38 -19 -93 38 -106 47 -10 52 -13 52 -29 0 -21 -68
-21 -76 0 -9 22 -31 18 -37 -6 -11 -42 11 -59 81 -59 92 0 95 115 3 137 -19 5
-36 14 -39 21 -6 18 53 15 68 -3 18 -21 30 -9 30 29 0 32 -1 33 -50 35 -38 1
-54 -3 -70 -19z"/>
<path d="M2134 425 c-50 -34 -57 -134 -13 -181 27 -28 92 -33 126 -9 37 26 19
45 -38 38 -32 -4 -54 -1 -64 7 -28 23 -15 30 56 30 l71 0 -7 33 c-10 45 -31
83 -50 91 -27 10 -59 7 -81 -9z m86 -55 c10 -19 8 -20 -40 -20 -51 0 -60 6
-38 28 19 19 66 15 78 -8z"/>
<path d="M2393 423 c-3 -9 -1 -24 5 -34 15 -23 16 -105 2 -114 -13 -8 -13 -42
1 -50 19 -13 59 4 59 25 0 11 -5 20 -10 20 -7 0 -10 22 -8 57 2 46 7 59 21 61
15 3 17 -6 17 -83 0 -84 1 -86 23 -83 23 3 39 48 17 48 -7 0 -10 20 -8 57 2
46 7 59 21 61 15 3 17 -6 17 -82 0 -80 1 -86 20 -86 26 0 36 25 21 53 -6 12
-12 51 -13 86 -3 72 -22 96 -58 74 -10 -7 -22 -9 -25 -4 -10 16 -96 11 -102
-6z"/>
<path d="M2757 433 c-12 -3 -17 -12 -15 -26 2 -17 10 -21 47 -21 26 -1 46 -6
48 -13 3 -9 -8 -13 -35 -13 -67 0 -103 -65 -66 -118 13 -19 24 -22 72 -21 31
1 65 3 75 6 21 5 23 43 2 43 -12 0 -15 14 -15 68 0 54 -4 72 -18 85 -18 16
-56 20 -95 10z m78 -123 c11 -18 -15 -40 -46 -40 -30 0 -38 17 -17 38 15 15
55 16 63 2z"/>
<path d="M3070 420 c-38 -38 -19 -93 38 -106 47 -10 52 -13 52 -29 0 -21 -68
-21 -76 0 -9 22 -31 18 -37 -6 -11 -42 11 -59 81 -59 92 0 95 115 3 137 -19 5
-36 14 -39 21 -6 18 53 15 68 -3 18 -21 30 -9 30 29 0 32 -1 33 -50 35 -38 1
-54 -3 -70 -19z"/>
</g>
</svg>
